<mxfile host="app.diagrams.net" modified="2024-03-07T12:22:57.743Z" agent="Mozilla/5.0 (Windows NT 10.0; Win64; x64) AppleWebKit/537.36 (KHTML, like Gecko) Chrome/122.0.0.0 Safari/537.36" etag="pWAiW508SKSKKL3T29d6" version="24.0.2" type="google">
  <diagram name="페이지-1" id="MOE8s8qeAbKtcc5MQoIf">
    <mxGraphModel grid="1" page="1" gridSize="10" guides="1" tooltips="1" connect="1" arrows="1" fold="1" pageScale="1" pageWidth="827" pageHeight="1169" math="0" shadow="0">
      <root>
        <mxCell id="0" />
        <mxCell id="1" parent="0" />
        <mxCell id="P1soiL6b1UgyscheHhNS-12" value="입력부" style="whiteSpace=wrap;html=1;aspect=fixed;" vertex="1" parent="1">
          <mxGeometry x="376" y="220" width="200" height="200" as="geometry" />
        </mxCell>
        <mxCell id="P1soiL6b1UgyscheHhNS-18" style="edgeStyle=orthogonalEdgeStyle;rounded=0;orthogonalLoop=1;jettySize=auto;html=1;entryX=0;entryY=0.5;entryDx=0;entryDy=0;" edge="1" parent="1" source="P1soiL6b1UgyscheHhNS-1" target="P1soiL6b1UgyscheHhNS-12">
          <mxGeometry relative="1" as="geometry" />
        </mxCell>
        <mxCell id="P1soiL6b1UgyscheHhNS-1" value="전원부" style="whiteSpace=wrap;html=1;aspect=fixed;" vertex="1" parent="1">
          <mxGeometry x="170" y="260" width="120" height="120" as="geometry" />
        </mxCell>
        <mxCell id="P1soiL6b1UgyscheHhNS-6" value="센서부" style="whiteSpace=wrap;html=1;aspect=fixed;" vertex="1" parent="1">
          <mxGeometry x="496" y="340" width="80" height="80" as="geometry" />
        </mxCell>
        <mxCell id="P1soiL6b1UgyscheHhNS-10" value="dc모터" style="whiteSpace=wrap;html=1;aspect=fixed;" vertex="1" parent="1">
          <mxGeometry x="381" y="490" width="70" height="70" as="geometry" />
        </mxCell>
        <mxCell id="P1soiL6b1UgyscheHhNS-20" value="" style="edgeStyle=orthogonalEdgeStyle;rounded=0;orthogonalLoop=1;jettySize=auto;html=1;" edge="1" parent="1" source="P1soiL6b1UgyscheHhNS-11" target="P1soiL6b1UgyscheHhNS-12">
          <mxGeometry relative="1" as="geometry" />
        </mxCell>
        <mxCell id="P1soiL6b1UgyscheHhNS-22" style="edgeStyle=orthogonalEdgeStyle;rounded=0;orthogonalLoop=1;jettySize=auto;html=1;entryX=0;entryY=0.5;entryDx=0;entryDy=0;" edge="1" parent="1" source="P1soiL6b1UgyscheHhNS-11" target="P1soiL6b1UgyscheHhNS-21">
          <mxGeometry relative="1" as="geometry" />
        </mxCell>
        <mxCell id="P1soiL6b1UgyscheHhNS-11" value="카메라" style="whiteSpace=wrap;html=1;aspect=fixed;" vertex="1" parent="1">
          <mxGeometry x="441" y="80" width="70" height="70" as="geometry" />
        </mxCell>
        <mxCell id="P1soiL6b1UgyscheHhNS-19" value="" style="edgeStyle=orthogonalEdgeStyle;rounded=0;orthogonalLoop=1;jettySize=auto;html=1;" edge="1" parent="1" source="P1soiL6b1UgyscheHhNS-17" target="P1soiL6b1UgyscheHhNS-10">
          <mxGeometry relative="1" as="geometry" />
        </mxCell>
        <mxCell id="P1soiL6b1UgyscheHhNS-17" value="제어부" style="rounded=0;whiteSpace=wrap;html=1;" vertex="1" parent="1">
          <mxGeometry x="376" y="340" width="80" height="80" as="geometry" />
        </mxCell>
        <mxCell id="P1soiL6b1UgyscheHhNS-21" value="라즈베리&lt;div&gt;파이&lt;/div&gt;" style="whiteSpace=wrap;html=1;aspect=fixed;" vertex="1" parent="1">
          <mxGeometry x="576" y="80" width="70" height="70" as="geometry" />
        </mxCell>
      </root>
    </mxGraphModel>
  </diagram>
</mxfile>
